<svg width="120" height="120" viewBox="0 0 120 120" fill="none" xmlns="http://www.w3.org/2000/svg">
  <!-- Background (White) -->
  <rect width="120" height="120" fill="#FFFFFF"/>
  
  <!-- Location Pin Shape -->
  <path d="M60 10C40 10 24 26 24 46C24 66 60 110 60 110C60 110 96 66 96 46C96 26 80 10 60 10Z" fill="#0D0D0D"/>
  
  <!-- Inner Circle (Sports Ball) -->
  <circle cx="60" cy="50" r="28" fill="white" opacity="0.95"/>
  
  <!-- Court Lines / Sports Ball Seams -->
  <path d="M60 22 Q45 36 60 50 Q75 36 60 22" stroke="#0D0D0D" stroke-width="2.5" fill="none" stroke-linecap="round"/>
  <path d="M60 22 Q75 36 60 50 Q45 36 60 22" stroke="#0D0D0D" stroke-width="2.5" fill="none" stroke-linecap="round"/>
  <path d="M32 50 Q60 36 60 50 Q60 64 32 50" stroke="#0D0D0D" stroke-width="2.5" fill="none" stroke-linecap="round"/>
  <path d="M88 50 Q60 64 60 50 Q60 36 88 50" stroke="#0D0D0D" stroke-width="2.5" fill="none" stroke-linecap="round"/>
  
  <!-- Horizontal Court Line -->
  <line x1="40" y1="50" x2="80" y2="50" stroke="#0D0D0D" stroke-width="2" stroke-linecap="round"/>
</svg>

