<svg width="320" height="120" viewBox="0 0 320 120" fill="none" xmlns="http://www.w3.org/2000/svg">
  <!-- Icon -->
  <g transform="translate(0, 0)">
    <path d="M60 10C40 10 24 26 24 46C24 66 60 110 60 110C60 110 96 66 96 46C96 26 80 10 60 10Z" fill="#3A7AFE"/>
    <circle cx="60" cy="50" r="28" fill="white" opacity="0.95"/>
    <path d="M60 22 Q45 36 60 50 Q75 36 60 22" stroke="#3A7AFE" stroke-width="2.5" fill="none" stroke-linecap="round"/>
    <path d="M60 22 Q75 36 60 50 Q45 36 60 22" stroke="#3A7AFE" stroke-width="2.5" fill="none" stroke-linecap="round"/>
    <path d="M32 50 Q60 36 60 50 Q60 64 32 50" stroke="#3A7AFE" stroke-width="2.5" fill="none" stroke-linecap="round"/>
    <path d="M88 50 Q60 64 60 50 Q60 36 88 50" stroke="#3A7AFE" stroke-width="2.5" fill="none" stroke-linecap="round"/>
    <line x1="40" y1="50" x2="80" y2="50" stroke="#3A7AFE" stroke-width="2" stroke-linecap="round"/>
  </g>
  
  <!-- Wordmark -->
  <text x="120" y="40" font-family="Outfit, sans-serif" font-size="32" font-weight="700" fill="#FFFFFF" letter-spacing="1.5">
    PLAY ZONE
  </text>
  
  <!-- Tagline -->
  <text x="120" y="65" font-family="Inter, sans-serif" font-size="12" font-weight="500" fill="#B5B7BA" letter-spacing="0.5">
    YOUR SPORT, YOUR TIME
  </text>
</svg>

